<svg width="184" height="464" viewBox="0 0 184 464" fill="none" xmlns="http://www.w3.org/2000/svg">
<g clip-path="url(#clip0_1_2)">
<rect width="184" height="464" fill="white"/>
<path d="M184 0H0V464H184V0Z" fill="white"/>
<path d="M52.5 40C56.0899 40 59 37.0899 59 33.5C59 29.9101 56.0899 27 52.5 27C48.9101 27 46 29.9101 46 33.5C46 37.0899 48.9101 40 52.5 40Z" fill="#0047FA"/>
<path d="M147.5 205C151.09 205 154 202.09 154 198.5C154 194.91 151.09 192 147.5 192C143.91 192 141 194.91 141 198.5C141 202.09 143.91 205 147.5 205Z" fill="#0047FA"/>
<path d="M6.5 90C12.299 90 17 84.4036 17 77.5C17 70.5964 12.299 65 6.5 65C0.70101 65 -4 70.5964 -4 77.5C-4 84.4036 0.70101 90 6.5 90Z" fill="url(#paint0_linear_1_2)"/>
<path d="M184 274C188.418 274 192 269.299 192 263.5C192 257.701 188.418 253 184 253C179.582 253 176 257.701 176 263.5C176 269.299 179.582 274 184 274Z" fill="url(#paint1_linear_1_2)"/>
<path d="M115 57C118.314 57 121 54.3137 121 51C121 47.6863 118.314 45 115 45C111.686 45 109 47.6863 109 51C109 54.3137 111.686 57 115 57Z" fill="url(#paint2_linear_1_2)"/>
</g>
<defs>
<linearGradient id="paint0_linear_1_2" x1="12.0169" y1="65" x2="3.41863" y2="88.891" gradientUnits="userSpaceOnUse">
<stop offset="0.369786" stop-color="#D5541A"/>
<stop offset="1" stop-color="#FAB12F"/>
</linearGradient>
<linearGradient id="paint1_linear_1_2" x1="188.203" y1="253" x2="180.433" y2="272.584" gradientUnits="userSpaceOnUse">
<stop offset="0.369786" stop-color="#D5541A"/>
<stop offset="1" stop-color="#FAB12F"/>
</linearGradient>
<linearGradient id="paint2_linear_1_2" x1="118.153" y1="45" x2="114.565" y2="56.8684" gradientUnits="userSpaceOnUse">
<stop offset="0.369786" stop-color="#D5541A"/>
<stop offset="1" stop-color="#FAB12F"/>
</linearGradient>
<clipPath id="clip0_1_2">
<rect width="184" height="464" fill="white"/>
</clipPath>
</defs>
</svg>
