<svg width="190" height="67" viewBox="0 0 190 67" fill="none" xmlns="http://www.w3.org/2000/svg">
<path d="M52.7578 20.9688C52.7578 23.8281 51.7656 26.8516 49.7812 30.0391C47.1562 34.2422 43.3438 37.5 38.3438 39.8125C33.7344 41.9375 28.7812 43 23.4844 43H15.75L24.2344 18.9531H32.6953L25.5 39.25C28.5781 39.25 31.625 38.3047 34.6406 36.4141C37.6719 34.5234 39.8828 32.1875 41.2734 29.4062C42.5234 26.9531 43.1484 24.9062 43.1484 23.2656C43.1484 20.5781 42.3984 18.6484 40.8984 17.4766C39.5547 16.4453 37.4922 15.9297 34.7109 15.9297H12.0469L15.6562 10.0234H38.3438C42.2656 10.0234 45.5312 10.8516 48.1406 12.5078C51.2188 14.4609 52.7578 17.2812 52.7578 20.9688ZM83.8594 39.25C83.1094 41.75 81.1953 43 78.1172 43H69.2344C66.7031 43 65.4375 42.1875 65.4375 40.5625C63.7344 42.5 61.6406 43.4688 59.1562 43.4688C57.3281 43.4688 55.8438 42.9062 54.7031 41.7812C53.5625 40.6562 52.9922 39.1875 52.9922 37.375C52.9922 34.1094 54.2422 31.5312 56.7422 29.6406C59.0078 27.9219 61.8125 27.0625 65.1562 27.0625H78.5391L74.1328 39.25H83.8594ZM68.7422 30.8125H63.5625L61.9219 36.2734C61.8281 36.6172 61.7812 36.9297 61.7812 37.2109C61.7812 38.5703 63.1094 39.25 65.7656 39.25L68.7422 30.8125ZM112.125 39.25C112.062 40.2969 111.461 41.1875 110.32 41.9219C109.195 42.6406 107.961 43 106.617 43H88.8047C85.3828 43 83.6719 41.9531 83.6719 39.8594C83.6719 39.6719 83.6875 39.4688 83.7188 39.25C83.8438 38.3125 84.3438 37.5859 85.2188 37.0703C85.9688 36.6172 86.8281 36.3984 87.7969 36.4141C89.4844 36.4609 91.7734 37.3906 94.6641 39.2031C95.4922 38.1719 95.9062 37.125 95.9062 36.0625C95.9062 35.5312 95.5703 34.3203 94.8984 32.4297L92.25 34.8438H87.5625L93.7969 29.0781C93.5156 28.5938 93.3203 28.1953 93.2109 27.8828C93.0078 27.3047 92.8984 26.6484 92.8828 25.9141L98.6484 19.7734C101.242 20.2109 102.539 21.3906 102.539 23.3125C102.539 24.4375 102.203 25.4766 101.531 26.4297C102.109 27.9609 102.695 29.4922 103.289 31.0234C104.008 32.9922 104.367 34.5859 104.367 35.8047C104.367 37.1484 103.836 38.2969 102.773 39.25H112.125ZM144.141 39.25C143.734 40.625 142.867 41.6406 141.539 42.2969C140.586 42.7656 139.562 43 138.469 43H128.484C126.719 43 125.836 42.3594 125.836 41.0781C125.836 40.5781 125.953 39.9688 126.188 39.25L127.875 34.2578L118.992 41.5703C117.898 42.5234 116.742 43 115.523 43H110.695L120.727 14.6875H129.164L122.109 34.6094L129.258 28.75C131.102 27.2344 133.195 26.4766 135.539 26.4766C137.102 26.4766 137.883 27.2734 137.883 28.8672C137.883 29.4453 137.742 30.1094 137.461 30.8594L134.484 39.25H144.141Z" fill="url(#paint0_linear_4_30)"/>
<rect x="0.5" y="0.5" width="178" height="60" stroke="#063F90"/>
<path d="M155.625 34.1797L157.547 34.1562L140.93 50.7266C138.273 53.3828 136.945 54.9531 136.945 55.4375C136.945 55.6406 137.031 55.8125 137.203 55.9531C137.391 56.0938 137.594 56.1641 137.812 56.1641C138.266 56.1641 138.961 55.8516 139.898 55.2266C140.852 54.6016 142.414 53.3516 144.586 51.4766L144.75 51.6406L142.805 53.2578C141.227 54.5703 140.102 55.4219 139.43 55.8125C138.758 56.2031 138.219 56.3984 137.812 56.3984C137.453 56.3984 137.141 56.2891 136.875 56.0703C136.625 55.8516 136.5 55.5547 136.5 55.1797C136.5 54.4141 136.945 53.4453 137.836 52.2734L137.742 52.1797C137.086 52.8047 136.133 53.5781 134.883 54.5C133.648 55.4062 132.758 55.9531 132.211 56.1406C131.68 56.3281 131.203 56.4219 130.781 56.4219C130.281 56.4219 129.891 56.25 129.609 55.9062C129.344 55.5625 129.211 55.125 129.211 54.5938C129.211 53.4531 129.727 52.3125 130.758 51.1719C131.805 50.0156 133.227 49.0391 135.023 48.2422C136.82 47.4297 138.211 47.0234 139.195 47.0234C139.617 47.0234 139.969 47.1406 140.25 47.375C140.531 47.6094 140.672 47.9141 140.672 48.2891C140.672 48.5078 140.578 48.8438 140.391 49.2969L155.625 34.1797ZM140.391 48.2656C140.391 47.625 140.023 47.3047 139.289 47.3047C138.039 47.3047 136.141 48.4141 133.594 50.6328C131.062 52.8516 129.797 54.4141 129.797 55.3203C129.797 55.8672 130.133 56.1406 130.805 56.1406C131.492 56.1406 132.188 55.9375 132.891 55.5312C133.609 55.1094 134.703 54.3359 136.172 53.2109C137.656 52.0703 138.727 51.1094 139.383 50.3281C140.055 49.5312 140.391 48.8438 140.391 48.2656ZM154.102 51.4766L154.266 51.6406C152.391 53.2969 150.68 54.5 149.133 55.25C147.586 55.9844 146.352 56.3516 145.43 56.3516C144.148 56.3516 143.508 55.6953 143.508 54.3828C143.508 52.6172 144.711 50.9531 147.117 49.3906C149.539 47.8281 151.43 47.0469 152.789 47.0469C153.039 47.0469 153.25 47.1172 153.422 47.2578C153.609 47.3984 153.703 47.5703 153.703 47.7734C153.703 48.5391 152.945 49.3438 151.43 50.1875C149.914 51.0312 148.234 51.5547 146.391 51.7578C144.797 53.3516 144 54.4453 144 55.0391C144 55.3203 144.141 55.5859 144.422 55.8359C144.703 56.0703 145.031 56.1875 145.406 56.1875C146.219 56.1875 147.367 55.8359 148.852 55.1328C150.352 54.4141 152.102 53.1953 154.102 51.4766ZM146.742 51.4766C147.211 51.4766 148.039 51.2734 149.227 50.8672C150.414 50.4609 151.398 49.9375 152.18 49.2969C152.977 48.6562 153.375 48.125 153.375 47.7031C153.375 47.4062 153.203 47.2578 152.859 47.2578C152.453 47.2578 152 47.3828 151.5 47.6328C151.016 47.8828 150.273 48.3984 149.273 49.1797C148.273 49.9453 147.43 50.7109 146.742 51.4766ZM154.242 51.6406L154.078 51.4766L157.406 48.7109C157.781 48.3984 158.383 47.9844 159.211 47.4688C160.039 46.9531 160.742 46.6953 161.32 46.6953C161.602 46.6953 161.859 46.8047 162.094 47.0234C162.344 47.2422 162.469 47.5391 162.469 47.9141C162.469 48.4141 162.297 49.0078 161.953 49.6953C161.625 50.3672 160.844 51.2344 159.609 52.2969C158.375 53.3594 157.625 54.0469 157.359 54.3594C157.109 54.6562 156.984 54.9297 156.984 55.1797C156.984 55.6641 157.305 55.9062 157.945 55.9062C158.805 55.9062 160.078 55.4609 161.766 54.5703C163.453 53.6641 164.828 52.7188 165.891 51.7344C166.453 50.2969 167.133 49.1016 167.93 48.1484C168.742 47.1953 169.289 46.7188 169.57 46.7188C169.82 46.7188 169.945 46.8672 169.945 47.1641C169.945 47.5547 169.477 48.3203 168.539 49.4609C167.617 50.5859 166.828 51.3828 166.172 51.8516C166.219 52.5078 166.531 52.8359 167.109 52.8359C167.688 52.8359 168.492 52.3828 169.523 51.4766L169.688 51.6406L168.891 52.2734C168.219 52.8047 167.625 53.0703 167.109 53.0703C166.5 53.0703 166.07 52.7578 165.82 52.1328C164.414 53.2891 162.922 54.2656 161.344 55.0625C159.781 55.8438 158.656 56.2344 157.969 56.2344C157.625 56.2344 157.273 56.0938 156.914 55.8125C156.555 55.5312 156.375 55.1094 156.375 54.5469C156.375 53.9531 156.57 53.3516 156.961 52.7422C157.352 52.1172 158.258 51.2266 159.68 50.0703C161.117 48.8984 161.836 48.0781 161.836 47.6094C161.836 47.4688 161.75 47.3203 161.578 47.1641C161.422 47.0078 161.25 46.9297 161.062 46.9297C160.344 46.9297 158.883 47.8203 156.68 49.6016L154.242 51.6406Z" fill="url(#paint1_linear_4_30)"/>
<defs>
<linearGradient id="paint0_linear_4_30" x1="78" y1="3.89644e-07" x2="75.4166" y2="41.6861" gradientUnits="userSpaceOnUse">
<stop offset="0.374995" stop-color="#063F90"/>
<stop offset="0.942726" stop-color="#F69767"/>
</linearGradient>
<linearGradient id="paint1_linear_4_30" x1="149" y1="42" x2="149" y2="56" gradientUnits="userSpaceOnUse">
<stop stop-color="#F69767"/>
<stop offset="1" stop-color="#063F90"/>
</linearGradient>
</defs>
</svg>
