<svg width="183" height="67" viewBox="0 0 183 67" fill="none" xmlns="http://www.w3.org/2000/svg">
<path d="M45.7578 20.9688C45.7578 23.8281 44.7656 26.8516 42.7812 30.0391C40.1562 34.2422 36.3438 37.5 31.3438 39.8125C26.7344 41.9375 21.7812 43 16.4844 43H8.75L17.2344 18.9531H25.6953L18.5 39.25C21.5781 39.25 24.625 38.3047 27.6406 36.4141C30.6719 34.5234 32.8828 32.1875 34.2734 29.4062C35.5234 26.9531 36.1484 24.9062 36.1484 23.2656C36.1484 20.5781 35.3984 18.6484 33.8984 17.4766C32.5547 16.4453 30.4922 15.9297 27.7109 15.9297H5.04688L8.65625 10.0234H31.3438C35.2656 10.0234 38.5312 10.8516 41.1406 12.5078C44.2188 14.4609 45.7578 17.2812 45.7578 20.9688ZM76.8594 39.25C76.1094 41.75 74.1953 43 71.1172 43H62.2344C59.7031 43 58.4375 42.1875 58.4375 40.5625C56.7344 42.5 54.6406 43.4688 52.1562 43.4688C50.3281 43.4688 48.8438 42.9062 47.7031 41.7812C46.5625 40.6562 45.9922 39.1875 45.9922 37.375C45.9922 34.1094 47.2422 31.5312 49.7422 29.6406C52.0078 27.9219 54.8125 27.0625 58.1562 27.0625H71.5391L67.1328 39.25H76.8594ZM61.7422 30.8125H56.5625L54.9219 36.2734C54.8281 36.6172 54.7812 36.9297 54.7812 37.2109C54.7812 38.5703 56.1094 39.25 58.7656 39.25L61.7422 30.8125ZM105.125 39.25C105.062 40.2969 104.461 41.1875 103.32 41.9219C102.195 42.6406 100.961 43 99.6172 43H81.8047C78.3828 43 76.6719 41.9531 76.6719 39.8594C76.6719 39.6719 76.6875 39.4688 76.7188 39.25C76.8438 38.3125 77.3438 37.5859 78.2188 37.0703C78.9688 36.6172 79.8281 36.3984 80.7969 36.4141C82.4844 36.4609 84.7734 37.3906 87.6641 39.2031C88.4922 38.1719 88.9062 37.125 88.9062 36.0625C88.9062 35.5312 88.5703 34.3203 87.8984 32.4297L85.25 34.8438H80.5625L86.7969 29.0781C86.5156 28.5938 86.3203 28.1953 86.2109 27.8828C86.0078 27.3047 85.8984 26.6484 85.8828 25.9141L91.6484 19.7734C94.2422 20.2109 95.5391 21.3906 95.5391 23.3125C95.5391 24.4375 95.2031 25.4766 94.5312 26.4297C95.1094 27.9609 95.6953 29.4922 96.2891 31.0234C97.0078 32.9922 97.3672 34.5859 97.3672 35.8047C97.3672 37.1484 96.8359 38.2969 95.7734 39.25H105.125ZM137.141 39.25C136.734 40.625 135.867 41.6406 134.539 42.2969C133.586 42.7656 132.562 43 131.469 43H121.484C119.719 43 118.836 42.3594 118.836 41.0781C118.836 40.5781 118.953 39.9688 119.188 39.25L120.875 34.2578L111.992 41.5703C110.898 42.5234 109.742 43 108.523 43H103.695L113.727 14.6875H122.164L115.109 34.6094L122.258 28.75C124.102 27.2344 126.195 26.4766 128.539 26.4766C130.102 26.4766 130.883 27.2734 130.883 28.8672C130.883 29.4453 130.742 30.1094 130.461 30.8594L127.484 39.25H137.141Z" fill="url(#paint0_linear_4_30)"/>
<path d="M148.625 34.1797L150.547 34.1562L133.93 50.7266C131.273 53.3828 129.945 54.9531 129.945 55.4375C129.945 55.6406 130.031 55.8125 130.203 55.9531C130.391 56.0938 130.594 56.1641 130.812 56.1641C131.266 56.1641 131.961 55.8516 132.898 55.2266C133.852 54.6016 135.414 53.3516 137.586 51.4766L137.75 51.6406L135.805 53.2578C134.227 54.5703 133.102 55.4219 132.43 55.8125C131.758 56.2031 131.219 56.3984 130.812 56.3984C130.453 56.3984 130.141 56.2891 129.875 56.0703C129.625 55.8516 129.5 55.5547 129.5 55.1797C129.5 54.4141 129.945 53.4453 130.836 52.2734L130.742 52.1797C130.086 52.8047 129.133 53.5781 127.883 54.5C126.648 55.4062 125.758 55.9531 125.211 56.1406C124.68 56.3281 124.203 56.4219 123.781 56.4219C123.281 56.4219 122.891 56.25 122.609 55.9062C122.344 55.5625 122.211 55.125 122.211 54.5938C122.211 53.4531 122.727 52.3125 123.758 51.1719C124.805 50.0156 126.227 49.0391 128.023 48.2422C129.82 47.4297 131.211 47.0234 132.195 47.0234C132.617 47.0234 132.969 47.1406 133.25 47.375C133.531 47.6094 133.672 47.9141 133.672 48.2891C133.672 48.5078 133.578 48.8438 133.391 49.2969L148.625 34.1797ZM133.391 48.2656C133.391 47.625 133.023 47.3047 132.289 47.3047C131.039 47.3047 129.141 48.4141 126.594 50.6328C124.062 52.8516 122.797 54.4141 122.797 55.3203C122.797 55.8672 123.133 56.1406 123.805 56.1406C124.492 56.1406 125.188 55.9375 125.891 55.5312C126.609 55.1094 127.703 54.3359 129.172 53.2109C130.656 52.0703 131.727 51.1094 132.383 50.3281C133.055 49.5312 133.391 48.8438 133.391 48.2656ZM147.102 51.4766L147.266 51.6406C145.391 53.2969 143.68 54.5 142.133 55.25C140.586 55.9844 139.352 56.3516 138.43 56.3516C137.148 56.3516 136.508 55.6953 136.508 54.3828C136.508 52.6172 137.711 50.9531 140.117 49.3906C142.539 47.8281 144.43 47.0469 145.789 47.0469C146.039 47.0469 146.25 47.1172 146.422 47.2578C146.609 47.3984 146.703 47.5703 146.703 47.7734C146.703 48.5391 145.945 49.3438 144.43 50.1875C142.914 51.0312 141.234 51.5547 139.391 51.7578C137.797 53.3516 137 54.4453 137 55.0391C137 55.3203 137.141 55.5859 137.422 55.8359C137.703 56.0703 138.031 56.1875 138.406 56.1875C139.219 56.1875 140.367 55.8359 141.852 55.1328C143.352 54.4141 145.102 53.1953 147.102 51.4766ZM139.742 51.4766C140.211 51.4766 141.039 51.2734 142.227 50.8672C143.414 50.4609 144.398 49.9375 145.18 49.2969C145.977 48.6562 146.375 48.125 146.375 47.7031C146.375 47.4062 146.203 47.2578 145.859 47.2578C145.453 47.2578 145 47.3828 144.5 47.6328C144.016 47.8828 143.273 48.3984 142.273 49.1797C141.273 49.9453 140.43 50.7109 139.742 51.4766ZM147.242 51.6406L147.078 51.4766L150.406 48.7109C150.781 48.3984 151.383 47.9844 152.211 47.4688C153.039 46.9531 153.742 46.6953 154.32 46.6953C154.602 46.6953 154.859 46.8047 155.094 47.0234C155.344 47.2422 155.469 47.5391 155.469 47.9141C155.469 48.4141 155.297 49.0078 154.953 49.6953C154.625 50.3672 153.844 51.2344 152.609 52.2969C151.375 53.3594 150.625 54.0469 150.359 54.3594C150.109 54.6562 149.984 54.9297 149.984 55.1797C149.984 55.6641 150.305 55.9062 150.945 55.9062C151.805 55.9062 153.078 55.4609 154.766 54.5703C156.453 53.6641 157.828 52.7188 158.891 51.7344C159.453 50.2969 160.133 49.1016 160.93 48.1484C161.742 47.1953 162.289 46.7188 162.57 46.7188C162.82 46.7188 162.945 46.8672 162.945 47.1641C162.945 47.5547 162.477 48.3203 161.539 49.4609C160.617 50.5859 159.828 51.3828 159.172 51.8516C159.219 52.5078 159.531 52.8359 160.109 52.8359C160.688 52.8359 161.492 52.3828 162.523 51.4766L162.688 51.6406L161.891 52.2734C161.219 52.8047 160.625 53.0703 160.109 53.0703C159.5 53.0703 159.07 52.7578 158.82 52.1328C157.414 53.2891 155.922 54.2656 154.344 55.0625C152.781 55.8438 151.656 56.2344 150.969 56.2344C150.625 56.2344 150.273 56.0938 149.914 55.8125C149.555 55.5312 149.375 55.1094 149.375 54.5469C149.375 53.9531 149.57 53.3516 149.961 52.7422C150.352 52.1172 151.258 51.2266 152.68 50.0703C154.117 48.8984 154.836 48.0781 154.836 47.6094C154.836 47.4688 154.75 47.3203 154.578 47.1641C154.422 47.0078 154.25 46.9297 154.062 46.9297C153.344 46.9297 151.883 47.8203 149.68 49.6016L147.242 51.6406Z" fill="url(#paint1_linear_4_30)"/>
<defs>
<linearGradient id="paint0_linear_4_30" x1="71" y1="3.89644e-07" x2="68.4166" y2="41.6861" gradientUnits="userSpaceOnUse">
<stop offset="0.374995" stop-color="#063F90"/>
<stop offset="0.942726" stop-color="#F69767"/>
</linearGradient>
<linearGradient id="paint1_linear_4_30" x1="142" y1="42" x2="142" y2="56" gradientUnits="userSpaceOnUse">
<stop stop-color="#F69767"/>
<stop offset="1" stop-color="#063F90"/>
</linearGradient>
</defs>
</svg>
